<?xml version="1.0" encoding="utf-8"?>
<!-- Generator: Adobe Illustrator 21.0.0, SVG Export Plug-In . SVG Version: 6.00 Build 0)  -->
<svg version="1.1" id="Layer_1" xmlns="http://www.w3.org/2000/svg" xmlns:xlink="http://www.w3.org/1999/xlink" x="0px" y="0px"
	 viewBox="0 0 1080 1080" style="enable-background:new 0 0 1080 1080;" xml:space="preserve">
<style type="text/css">
	.st0{fill:#BA0000;}
	.st1{fill:#FFFFFF;}
</style>
<g>
	<path class="st0" d="M235.4,876.7c0.4-60.2,17.3-116,50.2-165.7c33.2-50.2,77.2-87.2,134.5-112.9l0.8-0.3l-0.7-0.5
		c-33.6-25.3-58.4-54.6-73.8-86.9c-15.8-33.2-22-70.7-18.5-111.3c5-57.3,30.8-105.6,76.8-143.4c38.6-31.7,84.9-48.5,134.1-48.5
		c62.5,0,122.2,28,163.8,76.9c37.5,44,54.9,103.1,47.7,162c-7.3,60-39.6,113.4-91,150.4l-0.7,0.5l0.7,0.4
		c58.1,28.7,103.1,66.5,133.7,112.4c30.8,46.2,48.1,102.1,51.5,166.3l-60.5,0c-2.3-76.8-32.3-139.8-89-187.1
		c-43.9-36.7-96.6-55.5-156.6-55.9c-0.5,0-1,0-1.5,0c-114.6,0-239.9,93.1-242.7,243.5L235.4,876.7z M539.1,267.2
		c-40.9,0.1-79.4,16.1-108.2,45.1c-28.8,29-44.6,67.4-44.5,108.3c0.3,83.9,68.8,152.3,152.7,152.4h0.3
		c84.3,0,152.8-68.6,152.8-152.9c0-40.9-15.9-79.3-44.8-108.1c-28.9-28.9-67.3-44.8-108.1-44.8H539.1z"/>
	<path class="st1" d="M538.8,207.7c30.6,0,60.2,6.5,88.2,19.4c28.8,13.3,54.2,32.5,75.2,57.3c18.3,21.5,32.3,47.5,40.5,75.3
		c8.2,27.8,10.6,57.6,7.2,86.3c-3.5,28.8-12.7,56.1-27.3,81c-15.6,26.7-37,49.9-63.5,69l-1.4,1l1.5,0.7c29,14.3,54.9,31,77,49.5
		c22.2,18.6,41.2,39.7,56.5,62.7c15.4,23.1,27.5,48.8,36,76.3c8.5,27.4,13.6,57.4,15.4,89.2l-59.5,0c-2.4-76.7-32.4-139.6-89.2-187
		c-44-36.8-96.8-55.6-156.9-56c-0.5,0-1,0-1.5,0c-114.7,0-240.1,93.1-243.2,243.5l-6.9,0l-51.1,0c0.3-29.7,4.5-58.6,12.7-85.8
		c8.3-27.6,20.9-54.2,37.4-79.2c16.5-24.9,36.2-47.1,58.5-65.8c22.1-18.5,47.6-34.3,75.8-46.9l1.5-0.7l-1.4-1
		c-33.5-25.3-58.3-54.4-73.6-86.7c-15.7-33.2-21.9-70.5-18.4-111c5-57.2,30.7-105.3,76.6-143c19.3-15.9,40.9-28.2,64.1-36.4
		C491.5,211.7,515,207.7,538.8,207.7L538.8,207.7 M539.4,573.5c84.5,0,153.3-68.8,153.3-153.4c0-41-15.9-79.5-44.9-108.5
		c-29-29-67.5-44.9-108.5-44.9l-0.3,0c-41.1,0.1-79.6,16.1-108.6,45.2c-28.9,29.1-44.7,67.6-44.6,108.7
		c0.3,84.2,69,152.8,153.2,152.9L539.4,573.5 M538.8,206.7c-47.3,0-94.7,15.9-134.4,48.6c-45.1,37.1-71.9,85.3-77,143.7
		c-7.2,82.9,25.8,148.4,92.4,198.6c-56.5,25.3-101.4,62.5-134.7,113c-33.3,50.4-49.9,105.9-50.3,166.5c20.9,0,40.4,0,60,0
		c2.5-150.8,126.6-243.5,242.2-243.5c0.5,0,1,0,1.5,0c58.6,0.4,111.3,18.2,156.3,55.8c58.1,48.5,86.7,111.8,88.8,187.3
		c20.6,0,40.4,0,61.5,0c-6.7-130.2-69.1-222.3-185.5-279.7c113.4-81.6,116.5-227.2,43.3-313.2C659.8,232.9,599.5,206.7,538.8,206.7
		L538.8,206.7z M539.4,572.5c-0.1,0-0.2,0-0.3,0c-84-0.2-151.9-67.9-152.2-151.9c-0.3-84.3,67.8-152.7,152.2-152.9
		c0.1,0,0.2,0,0.3,0c84.2,0,152.4,68.2,152.4,152.4C691.7,504.4,623.6,572.5,539.4,572.5L539.4,572.5z"/>
</g>
</svg>
