<?xml version="1.0" encoding="utf-8"?>
<!-- Generator: Adobe Illustrator 21.1.0, SVG Export Plug-In . SVG Version: 6.00 Build 0)  -->
<svg version="1.0" id="Layer_1" xmlns="http://www.w3.org/2000/svg" xmlns:xlink="http://www.w3.org/1999/xlink" x="0px" y="0px"
	 viewBox="0 0 307 107" enable-background="new 0 0 307 107" xml:space="preserve">
<g>
	<defs>
		<rect id="SVGID_1_" y="0" width="307" height="107"/>
	</defs>
	<clipPath id="SVGID_2_">
		<use xlink:href="#SVGID_1_"  overflow="visible"/>
	</clipPath>
	<g clip-path="url(#SVGID_2_)">
		<defs>
			<polyline id="SVGID_3_" points="0,0 0,107 307,107 307,0 			"/>
		</defs>
		<clipPath id="SVGID_4_">
			<use xlink:href="#SVGID_3_"  overflow="visible"/>
		</clipPath>
		<path clip-path="url(#SVGID_4_)" d="M31.6,58.5h-3.5V38.4c0-1.6,0.1-3.5,0.3-5.8h-0.1c-0.3,1.4-0.6,2.3-0.9,2.9l-10.2,23h-1.7
			L5.2,35.7C5,35,4.7,34,4.3,32.6H4.3c0.1,1.2,0.2,3.1,0.2,5.9v20.1H1v-30h4.6l9.2,20.9c0.7,1.6,1.1,2.8,1.4,3.6h0.1
			c0.7-1.9,1.2-3.1,1.4-3.7l9.4-20.8h4.4V58.5"/>
		<path clip-path="url(#SVGID_4_)" d="M41.9,29.5c0,0.6-0.2,1.2-0.7,1.6c-0.4,0.4-1,0.6-1.6,0.6c-0.6,0-1.2-0.2-1.6-0.6
			c-0.4-0.4-0.6-1-0.6-1.6c0-0.6,0.2-1.1,0.6-1.6c0.4-0.4,1-0.7,1.6-0.7c0.6,0,1.2,0.2,1.6,0.6C41.7,28.3,41.9,28.8,41.9,29.5
			 M41.3,58.5h-3.4V37.1h3.4V58.5"/>
		<path clip-path="url(#SVGID_4_)" d="M61.6,57.5C60,58.5,58,59,55.7,59c-1.9,0-3.7-0.4-5.3-1.3c-1.6-0.9-2.8-2.2-3.6-3.8
			c-0.9-1.6-1.3-3.5-1.3-5.5c0-3.5,1-6.4,3-8.5c2-2.1,4.7-3.2,8.1-3.2c1.9,0,3.5,0.4,4.9,1.1v3.5c-1.6-1.1-3.3-1.7-5.1-1.7
			c-2.2,0-4,0.8-5.4,2.4c-1.4,1.6-2.1,3.6-2.1,6.1c0,2.5,0.7,4.5,2,5.9c1.3,1.4,3.1,2.2,5.3,2.2c1.9,0,3.6-0.6,5.3-1.8V57.5"/>
		<path clip-path="url(#SVGID_4_)" d="M76.9,40.6c-0.6-0.5-1.5-0.7-2.6-0.7c-1.5,0-2.7,0.7-3.7,2.1c-0.9,1.4-1.4,3.3-1.4,5.6v10.9
			h-3.4V37.1h3.4v4.4h0.1c0.5-1.5,1.2-2.6,2.2-3.5c1-0.9,2.1-1.3,3.4-1.3c0.9,0,1.6,0.1,2,0.3V40.6"/>
		<path clip-path="url(#SVGID_4_)" d="M98.4,47.7c0,3.4-1,6.1-2.9,8.2C93.6,58,91,59,87.7,59c-3.2,0-5.7-1-7.6-3
			c-1.9-2-2.8-4.7-2.8-8c0-3.5,1-6.3,2.9-8.4c1.9-2.1,4.6-3.1,8-3.1c3.2,0,5.7,1,7.5,3C97.5,41.6,98.4,44.3,98.4,47.7 M94.9,47.9
			c0-2.7-0.6-4.8-1.8-6.2c-1.2-1.4-2.9-2.2-5.1-2.2c-2.2,0-3.9,0.7-5.2,2.2c-1.3,1.5-1.9,3.5-1.9,6.2c0,2.6,0.6,4.6,1.9,6
			c1.3,1.4,3,2.2,5.2,2.2c2.2,0,3.9-0.7,5.1-2.1C94.3,52.6,94.9,50.5,94.9,47.9"/>
		<path clip-path="url(#SVGID_4_)" d="M114.3,52.8c0,1.9-0.7,3.4-2.1,4.5c-1.4,1.2-3.3,1.7-5.7,1.7c-2,0-3.8-0.4-5.3-1.3v-3.7
			c1.7,1.4,3.5,2,5.6,2c2.7,0,4.1-1,4.1-3c0-0.8-0.3-1.5-0.8-2c-0.5-0.5-1.7-1.2-3.6-2.1c-1.9-0.8-3.2-1.7-4-2.6
			c-0.8-0.9-1.2-2.2-1.2-3.7c0-1.8,0.7-3.2,2.1-4.4c1.4-1.2,3.2-1.8,5.4-1.8c1.7,0,3.2,0.3,4.6,1v3.4c-1.4-1-3-1.5-4.8-1.5
			c-1.1,0-2,0.3-2.7,0.8c-0.7,0.6-1,1.3-1,2.2c0,0.9,0.3,1.7,0.8,2.2c0.5,0.5,1.6,1.1,3.3,1.8c2,0.9,3.5,1.8,4.3,2.7
			C113.9,50.2,114.3,51.4,114.3,52.8"/>
		<path clip-path="url(#SVGID_4_)" d="M137.7,47.7c0,3.4-1,6.1-2.9,8.2c-1.9,2.1-4.5,3.1-7.8,3.1c-3.2,0-5.7-1-7.6-3
			c-1.9-2-2.8-4.7-2.8-8c0-3.5,1-6.3,2.9-8.4c1.9-2.1,4.6-3.1,8-3.1c3.2,0,5.7,1,7.5,3C136.8,41.6,137.7,44.3,137.7,47.7
			 M134.2,47.9c0-2.7-0.6-4.8-1.8-6.2c-1.2-1.4-2.9-2.2-5.1-2.2c-2.2,0-3.9,0.7-5.2,2.2c-1.3,1.5-1.9,3.5-1.9,6.2
			c0,2.6,0.6,4.6,1.9,6c1.3,1.4,3,2.2,5.2,2.2c2.2,0,3.9-0.7,5.1-2.1C133.6,52.6,134.2,50.5,134.2,47.9"/>
		<path clip-path="url(#SVGID_4_)" d="M151.7,29.8c-0.7-0.4-1.4-0.6-2.3-0.6c-2.4,0-3.6,1.5-3.6,4.5v3.3h5V40h-5v18.5h-3.4V40h-3.6
			v-2.9h3.6v-3.5c0-2.2,0.6-3.9,1.9-5.3c1.3-1.3,2.9-2,4.9-2c1,0,1.9,0.1,2.5,0.4V29.8"/>
		<path clip-path="url(#SVGID_4_)" d="M164.1,58.3c-0.8,0.5-1.9,0.7-3.2,0.7c-3.7,0-5.6-2.1-5.6-6.3V40h-3.7v-2.9h3.7v-5.2l3.4-1.1
			v6.3h5.4V40h-5.4v12.1c0,1.4,0.2,2.5,0.7,3.1c0.5,0.6,1.3,0.9,2.4,0.9c0.8,0,1.6-0.2,2.2-0.7V58.3"/>
		<path clip-path="url(#SVGID_4_)" d="M195.3,37.5c0,2.9-1,5.2-3,7c-2,1.8-4.6,2.7-7.9,2.7h-3.9v11.3H177v-30h8.2
			c3.2,0,5.7,0.8,7.4,2.4C194.4,32.5,195.3,34.7,195.3,37.5 M191.6,37.7c0-4-2.3-6-7-6h-4.1V44h3.7c2.4,0,4.3-0.5,5.5-1.6
			C191,41.3,191.6,39.7,191.6,37.7"/>
		<path clip-path="url(#SVGID_4_)" d="M213.2,58.5h-3.4v-3.3h-0.1c-1.5,2.6-3.7,3.9-6.6,3.9c-2.1,0-3.7-0.6-4.9-1.7
			c-1.2-1.1-1.9-2.6-1.9-4.5c0-4,2.4-6.3,7.1-7l6.4-0.9c0-3.6-1.5-5.4-4.4-5.4c-2.6,0-4.9,0.9-7,2.6v-3.5c0.6-0.5,1.7-0.9,3.2-1.4
			c1.5-0.4,2.9-0.7,4.1-0.7c5,0,7.5,2.7,7.5,8V58.5 M209.8,47.7l-5.2,0.7c-1.8,0.3-3,0.7-3.7,1.3c-0.7,0.6-1.1,1.6-1.1,2.9
			c0,1.1,0.4,1.9,1.1,2.6c0.8,0.6,1.7,1,2.9,1c1.7,0,3.1-0.6,4.2-1.8c1.1-1.2,1.7-2.7,1.7-4.5V47.7"/>
		<path clip-path="url(#SVGID_4_)" d="M229.7,40.6c-0.6-0.5-1.5-0.7-2.6-0.7c-1.5,0-2.7,0.7-3.7,2.1c-0.9,1.4-1.4,3.3-1.4,5.6v10.9
			h-3.4V37.1h3.4v4.4h0.1c0.5-1.5,1.2-2.6,2.2-3.5c1-0.9,2.1-1.3,3.4-1.3c0.9,0,1.6,0.1,2,0.3V40.6"/>
		<path clip-path="url(#SVGID_4_)" d="M245.7,58.3c-0.8,0.5-1.9,0.7-3.2,0.7c-3.7,0-5.6-2.1-5.6-6.3V40h-3.7v-2.9h3.7v-5.2l3.4-1.1
			v6.3h5.4V40h-5.4v12.1c0,1.4,0.2,2.5,0.7,3.1c0.5,0.6,1.3,0.9,2.4,0.9c0.8,0,1.6-0.2,2.2-0.7V58.3"/>
		<path clip-path="url(#SVGID_4_)" d="M268.2,58.5h-3.4V46.3c0-4.5-1.7-6.8-5-6.8c-1.7,0-3.1,0.6-4.2,1.9c-1.1,1.3-1.7,2.9-1.7,4.9
			v12.2h-3.4V37.1h3.4v3.6h0.1c1.6-2.7,3.9-4.1,7-4.1c2.4,0,4.1,0.8,5.4,2.3c1.2,1.5,1.8,3.7,1.8,6.5V58.5"/>
		<path clip-path="url(#SVGID_4_)" d="M290.6,48.7h-15.1c0.1,2.4,0.7,4.3,1.9,5.5c1.2,1.3,2.9,1.9,5.1,1.9c2.4,0,4.6-0.8,6.6-2.3V57
			c-1.9,1.4-4.3,2.1-7.4,2.1c-3,0-5.4-1-7.1-3c-1.7-2-2.6-4.7-2.6-8.2c0-2.1,0.4-4.1,1.3-5.8c0.9-1.7,2-3.1,3.5-4.1
			c1.5-1,3.2-1.4,5-1.4c2.8,0,4.9,0.9,6.5,2.7c1.6,1.8,2.3,4.3,2.3,7.6V48.7 M287.1,45.8c0-2-0.5-3.5-1.4-4.6
			c-0.9-1.1-2.2-1.6-3.9-1.6c-1.6,0-2.9,0.6-4.1,1.7c-1.1,1.1-1.8,2.7-2.1,4.5H287.1"/>
		<path clip-path="url(#SVGID_4_)" d="M305.7,40.6c-0.6-0.5-1.5-0.7-2.6-0.7c-1.5,0-2.7,0.7-3.7,2.1c-0.9,1.4-1.4,3.3-1.4,5.6v10.9
			h-3.4V37.1h3.4v4.4h0.1c0.5-1.5,1.2-2.6,2.2-3.5c1-0.9,2.1-1.3,3.4-1.3c0.9,0,1.6,0.1,2,0.3V40.6"/>
		<path clip-path="url(#SVGID_4_)" fill="#737474" d="M234.8,95.5l-0.7,1.8h0c-0.1-0.4-0.3-1-0.6-1.8l-3.5-8.9h-3.4v14.1h2.3v-8.7
			c0-0.5,0-1.2,0-1.9c0-0.4-0.1-0.7-0.1-0.9h0.1c0.1,0.5,0.2,0.9,0.3,1.2l4.2,10.3h1.6l4.2-10.4c0.1-0.2,0.2-0.7,0.3-1.1h0
			c-0.1,1-0.1,2-0.1,2.5v8.9h2.4V86.7h-3.3L234.8,95.5"/>
		<polyline clip-path="url(#SVGID_4_)" fill="#737474" points="244,100.8 246.4,100.8 246.4,93.2 246.4,90.7 244,90.7 244,96.9 
			244,100.8 		"/>
		<path clip-path="url(#SVGID_4_)" fill="#737474" d="M245.2,86.4c-0.4,0-0.7,0.1-1,0.4c-0.3,0.3-0.4,0.6-0.4,1c0,0.4,0.1,0.7,0.4,1
			c0.3,0.3,0.6,0.4,1,0.4c0.4,0,0.7-0.1,1-0.4c0.3-0.3,0.4-0.6,0.4-1c0-0.4-0.1-0.7-0.4-1C246,86.5,245.7,86.4,245.2,86.4"/>
		<path clip-path="url(#SVGID_4_)" fill="#737474" d="M254.8,90.6c-0.5-0.1-0.9-0.1-1.3-0.1c-1.1,0-2.1,0.2-2.9,0.7
			c-0.8,0.5-1.5,1.1-1.9,2c-0.4,0.8-0.7,1.8-0.7,2.9c0,1,0.2,1.8,0.6,2.6c0.4,0.8,1,1.4,1.8,1.8c0.8,0.4,1.6,0.6,2.6,0.6
			c1.1,0,2.1-0.2,2.9-0.7l0,0v-2.2l-0.1,0.1c-0.3,0.3-0.7,0.5-1.2,0.6c-0.4,0.1-0.8,0.2-1.1,0.2c-0.9,0-1.7-0.3-2.2-0.9
			c-0.5-0.6-0.8-1.4-0.8-2.4c0-1,0.3-1.9,0.9-2.5c0.6-0.6,1.3-0.9,2.2-0.9c0.8,0,1.5,0.3,2.3,0.8l0.1,0.1V91l0,0
			C255.6,90.8,255.3,90.7,254.8,90.6"/>
		<path clip-path="url(#SVGID_4_)" fill="#737474" d="M262.6,90.5c-0.6,0-1.1,0.2-1.6,0.6c-0.4,0.3-0.7,0.8-0.9,1.4h0v-1.7h-2.4
			v10.1h2.4v-5.2c0-0.9,0.2-1.6,0.6-2.1c0.4-0.5,0.9-0.8,1.5-0.8c0.2,0,0.5,0,0.7,0.1c0.3,0.1,0.4,0.1,0.6,0.2l0.1,0.1v-2.4l0,0
			C263.3,90.6,263,90.5,262.6,90.5"/>
		<path clip-path="url(#SVGID_4_)" fill="#737474" d="M269.1,90.4c-1.7,0-3,0.5-3.9,1.4c-0.9,1-1.4,2.3-1.4,4c0,1.6,0.5,2.9,1.4,3.8
			c0.9,0.9,2.2,1.4,3.7,1.4c1.6,0,2.9-0.5,3.8-1.5c0.9-1,1.4-2.3,1.4-3.9c0-1.6-0.4-2.9-1.3-3.8C271.9,90.9,270.6,90.4,269.1,90.4
			 M270.9,98.2c-0.4,0.6-1.1,0.8-2,0.8c-0.9,0-1.6-0.3-2-0.9c-0.5-0.6-0.7-1.4-0.7-2.4c0-1.1,0.2-1.9,0.7-2.5c0.5-0.6,1.2-0.9,2-0.9
			c0.8,0,1.5,0.3,2,0.8c0.5,0.6,0.7,1.4,0.7,2.5C271.6,96.8,271.4,97.6,270.9,98.2"/>
		<path clip-path="url(#SVGID_4_)" fill="#737474" d="M279.3,94.9c-0.7-0.3-1.2-0.5-1.4-0.7c-0.2-0.2-0.3-0.4-0.3-0.8
			c0-0.3,0.1-0.5,0.4-0.7c0.2-0.2,0.6-0.3,1-0.3c0.4,0,0.8,0.1,1.2,0.2c0.4,0.1,0.8,0.3,1.1,0.5l0.1,0.1v-2.2l0,0
			c-0.3-0.1-0.6-0.2-1.1-0.3c-0.4-0.1-0.8-0.1-1.2-0.1c-1.1,0-2.1,0.3-2.8,0.9c-0.7,0.6-1.1,1.3-1.1,2.2c0,0.5,0.1,0.9,0.2,1.3
			c0.2,0.4,0.4,0.7,0.7,0.9c0.3,0.3,0.8,0.5,1.5,0.8c0.5,0.2,1,0.4,1.2,0.6c0.3,0.1,0.4,0.3,0.5,0.4c0.1,0.1,0.1,0.3,0.1,0.6
			c0,0.7-0.5,1-1.6,1c-0.4,0-0.8-0.1-1.3-0.2c-0.5-0.2-0.9-0.4-1.3-0.7l-0.1-0.1v2.3l0,0c0.3,0.2,0.8,0.3,1.3,0.4
			c0.5,0.1,1,0.2,1.4,0.2c1.2,0,2.2-0.3,2.9-0.9c0.7-0.6,1.1-1.3,1.1-2.3c0-0.7-0.2-1.3-0.6-1.7C281,95.7,280.3,95.2,279.3,94.9"/>
		<path clip-path="url(#SVGID_4_)" fill="#737474" d="M288.3,90.4c-1.7,0-3,0.5-3.9,1.4c-0.9,1-1.4,2.3-1.4,4c0,1.6,0.5,2.9,1.4,3.8
			c0.9,0.9,2.2,1.4,3.7,1.4c1.6,0,2.9-0.5,3.8-1.5c0.9-1,1.4-2.3,1.4-3.9c0-1.6-0.4-2.9-1.3-3.8C291.1,90.9,289.9,90.4,288.3,90.4
			 M290.2,98.2c-0.4,0.6-1.1,0.8-2,0.8c-0.9,0-1.6-0.3-2-0.9c-0.5-0.6-0.7-1.4-0.7-2.4c0-1.1,0.2-1.9,0.7-2.5c0.5-0.6,1.2-0.9,2-0.9
			c0.8,0,1.5,0.3,2,0.8c0.5,0.6,0.7,1.4,0.7,2.5C290.9,96.8,290.6,97.6,290.2,98.2"/>
		<path clip-path="url(#SVGID_4_)" fill="#737474" d="M306,92.6v-1.9h-2.4v-3l-0.1,0l-2.3,0.7l0,0v2.3h-3.6v-1.3
			c0-0.6,0.1-1,0.4-1.3c0.3-0.3,0.6-0.5,1.1-0.5c0.3,0,0.7,0.1,1,0.2l0.1,0v-2l0,0c-0.3-0.1-0.8-0.2-1.3-0.2c-0.7,0-1.3,0.2-1.9,0.5
			c-0.6,0.3-1,0.7-1.3,1.3c-0.3,0.5-0.5,1.2-0.5,1.9v1.4h-1.7v1.9h1.7v8.2h2.4v-8.2h3.6v5.2c0,2.1,1,3.2,3,3.2c0.3,0,0.7,0,1-0.1
			c0.4-0.1,0.6-0.2,0.7-0.2l0,0v-2l-0.1,0.1c-0.1,0.1-0.3,0.2-0.5,0.2c-0.2,0.1-0.4,0.1-0.5,0.1c-0.5,0-0.8-0.1-1-0.4
			c-0.2-0.2-0.3-0.7-0.3-1.3v-4.8H306"/>
		<polyline clip-path="url(#SVGID_4_)" fill="#EF5226" points="207.2,93.2 196,93.2 196,82 207.2,82 207.2,93.2 		"/>
		<polyline clip-path="url(#SVGID_4_)" fill="#80BA41" points="219.5,93.2 208.3,93.2 208.3,82 219.5,82 219.5,93.2 		"/>
		<polyline clip-path="url(#SVGID_4_)" fill="#339FD9" points="207.2,105.5 196,105.5 196,94.3 207.2,94.3 207.2,105.5 		"/>
		<polyline clip-path="url(#SVGID_4_)" fill="#FBB616" points="219.5,105.5 208.3,105.5 208.3,94.3 219.5,94.3 219.5,105.5 		"/>
		<path clip-path="url(#SVGID_4_)" fill="#856B2A" d="M13.2,16.3c-1.5,0.9-3.2,1.3-5,1.3c-1.4,0-2.6-0.3-3.7-1
			C3.3,16,2.5,15.1,1.9,14C1.3,12.8,1,11.5,1,10.1c0-2.3,0.7-4.2,2.2-5.7c1.5-1.5,3.3-2.2,5.6-2.2c1.6,0,3,0.3,4.1,0.8v1.9
			c-1.2-0.8-2.6-1.2-4.3-1.2C7.5,3.7,6.5,4,5.6,4.5C4.8,5,4.1,5.8,3.6,6.7c-0.5,1-0.7,2-0.7,3.2c0,1.9,0.5,3.4,1.5,4.5
			c1,1.1,2.3,1.6,4.1,1.6c1.2,0,2.2-0.2,3-0.7v-4.2H8.2V9.5h5V16.3"/>
		<path clip-path="url(#SVGID_4_)" fill="#856B2A" d="M26.7,12c0,1.7-0.5,3.1-1.4,4.1c-1,1-2.3,1.6-3.9,1.6c-1.6,0-2.8-0.5-3.8-1.5
			c-0.9-1-1.4-2.3-1.4-4c0-1.8,0.5-3.2,1.5-4.2c1-1,2.3-1.5,4-1.5c1.6,0,2.8,0.5,3.7,1.5C26.2,8.9,26.7,10.2,26.7,12 M24.9,12
			c0-1.3-0.3-2.4-0.9-3.1c-0.6-0.7-1.4-1.1-2.6-1.1c-1.1,0-2,0.4-2.6,1.1c-0.6,0.7-1,1.8-1,3.1c0,1.3,0.3,2.3,1,3
			c0.6,0.7,1.5,1.1,2.6,1.1c1.1,0,2-0.4,2.6-1.1C24.6,14.4,24.9,13.4,24.9,12"/>
		<polyline clip-path="url(#SVGID_4_)" fill="#856B2A" points="31.6,17.4 29.9,17.4 29.9,1.5 31.6,1.5 31.6,17.4 		"/>
		<path clip-path="url(#SVGID_4_)" fill="#856B2A" d="M44.6,17.4h-1.7v-1.8h0c-0.8,1.4-2,2.1-3.7,2.1c-1.4,0-2.4-0.5-3.2-1.5
			c-0.8-1-1.2-2.3-1.2-3.9c0-1.8,0.4-3.2,1.3-4.3c0.9-1.1,2.1-1.6,3.6-1.6c1.5,0,2.5,0.6,3.2,1.7h0V1.5h1.7V17.4 M42.9,12.5v-1.6
			c0-0.9-0.3-1.6-0.9-2.2c-0.6-0.6-1.3-0.9-2.1-0.9c-1,0-1.8,0.4-2.5,1.1c-0.6,0.8-0.9,1.8-0.9,3.2c0,1.2,0.3,2.2,0.9,2.9
			c0.6,0.7,1.3,1.1,2.3,1.1c0.9,0,1.7-0.3,2.3-1C42.6,14.4,42.9,13.6,42.9,12.5"/>
	</g>
</g>
</svg>
